<svg width="88" height="88" viewBox="0 0 88 88" fill="none" xmlns="http://www.w3.org/2000/svg">
<rect width="88" height="88" fill="#FEF7F2"/>
<path d="M59 12C67.8365 12 75 19.1635 75 28C75 36.8365 67.8365 44 59 44C67.8365 44 75 51.1635 75 60C75 68.8365 67.8365 76 59 76C50.1635 76 43 68.8365 43 60C43 68.8365 35.8365 76 27 76C18.1635 76 11 68.8365 11 60C11 51.1635 18.1635 44 27 44C18.1635 44 11 36.8365 11 28C11 19.1635 18.1635 12 27 12C35.8365 12 43 19.1635 43 28C43 19.1635 50.1635 12 59 12ZM43 37C39.134 37 36 40.134 36 44C36 47.866 39.134 51 43 51C46.866 51 50 47.866 50 44C50 40.134 46.866 37 43 37Z" fill="#4A118E"/>
</svg>
