<svg width="256" height="256" viewBox="0 0 256 256" fill="none" xmlns="http://www.w3.org/2000/svg">
<path d="M180 24C208.719 24 232 47.2814 232 76C232 104.719 208.719 128 180 128C208.719 128 232 151.281 232 180C232 208.719 208.719 232 180 232C151.281 232 128 208.719 128 180C128 208.719 104.719 232 76 232C47.2814 232 24 208.719 24 180C24 151.281 47.2814 128 76 128C47.2814 128 24 104.719 24 76C24 47.2814 47.2814 24 76 24C104.719 24 128 47.2814 128 76C128 47.2814 151.281 24 180 24ZM128 105.25C115.436 105.25 105.25 115.436 105.25 128C105.25 140.564 115.436 150.75 128 150.75C140.564 150.75 150.75 140.564 150.75 128C150.75 115.436 140.564 105.25 128 105.25Z" fill="#E92E20"/>
</svg>
